<?xml version="1.0" encoding="UTF-8" standalone="no"?>
<svg
   xmlns:dc="http://purl.org/dc/elements/1.1/"
   xmlns:cc="http://creativecommons.org/ns#"
   xmlns:rdf="http://www.w3.org/1999/02/22-rdf-syntax-ns#"
   xmlns:svg="http://www.w3.org/2000/svg"
   xmlns="http://www.w3.org/2000/svg"
   xmlns:sodipodi="http://sodipodi.sourceforge.net/DTD/sodipodi-0.dtd"
   xmlns:inkscape="http://www.inkscape.org/namespaces/inkscape"
   width="128"
   height="121.5"
   viewBox="0 0 33.866667 32.146875"
   version="1.1"
   id="svg8"
   inkscape:version="1.0 (4035a4fb49, 2020-05-01)"
   sodipodi:docname="favicon.svg">
  <defs
     id="defs2" />
  <sodipodi:namedview
     units="px"
     fit-margin-bottom="0"
     fit-margin-right="0"
     fit-margin-left="0"
     fit-margin-top="0"
     id="base"
     pagecolor="#ffffff"
     bordercolor="#666666"
     borderopacity="1.0"
     inkscape:pageopacity="0.0"
     inkscape:pageshadow="2"
     inkscape:zoom="0.35"
     inkscape:cx="60.464292"
     inkscape:cy="115.74553"
     inkscape:document-units="mm"
     inkscape:current-layer="layer1"
     inkscape:document-rotation="0"
     showgrid="false"
     inkscape:window-width="1920"
     inkscape:window-height="1137"
     inkscape:window-x="-8"
     inkscape:window-y="-8"
     inkscape:window-maximized="1" />
  <metadata
     id="metadata5">
    <rdf:RDF>
      <cc:Work
         rdf:about="">
        <dc:format>image/svg+xml</dc:format>
        <dc:type
           rdf:resource="http://purl.org/dc/dcmitype/StillImage" />
        <dc:title></dc:title>
      </cc:Work>
    </rdf:RDF>
  </metadata>
  <g
     transform="translate(-73.204538,-117.54233)"
     inkscape:label="Layer 1"
     inkscape:groupmode="layer"
     id="layer1">
    <g
       transform="matrix(0.93451964,0,0,0.93451964,4.7934592,7.6967137)"
       aria-label="W"
       id="text12"
       style="font-style:normal;font-variant:normal;font-weight:normal;font-stretch:normal;font-size:10.5833px;line-height:1.25;font-family:'Yearbook Solid';-inkscape-font-specification:'Yearbook Solid';letter-spacing:0px;word-spacing:0px;white-space:pre;inline-size:0;fill:#005000;fill-opacity:1;stroke:none;stroke-width:0.264583">
      <path
         d="M 109.44419,151.94643 H 95.379928 l 0.595313,-6.92051 q 3.497461,-1.46348 5.134569,-4.16719 1.66191,-2.70371 1.66191,-7.59023 0,-6.74688 -3.299018,-10.34356 -3.274219,-3.62148 -8.259961,-3.62148 -4.81211,0 -8.135938,3.67109 -3.323828,3.64629 -3.323828,9.94668 0,4.96094 1.686719,7.9127 1.711523,2.95175 5.13457,4.19199 l 0.620117,6.92051 H 73.204538 v -6.92051 h 0.868164 q 0.07441,1.51308 0.79375,2.05879 1.116211,0.86816 3.398242,0.86816 h 6.697266 v -1.73633 q -5.208985,-1.51308 -8.061524,-5.18418 -2.827734,-3.67109 -2.827734,-8.65683 0,-6.25078 4.613672,-10.54199 4.638476,-4.29121 12.526367,-4.29121 4.836914,0 8.880079,1.83554 4.06797,1.81074 6.25078,5.30821 2.20762,3.49746 2.20762,7.68945 0,5.13457 -3.02617,8.95449 -3.00137,3.79512 -7.863091,4.88652 l -0.198437,1.73633 h 6.821288 q 2.28203,0 3.175,-0.69453 0.89297,-0.69453 1.0418,-2.23242 h 0.94258 z"
         style="font-style:normal;font-variant:normal;font-weight:normal;font-stretch:normal;font-size:50.8px;font-family:Symbol;-inkscape-font-specification:Symbol;fill:#005000;fill-opacity:1;stroke-width:0.264583"
         id="path837" />
    </g>
  </g>
</svg>
